<mxfile host="app.diagrams.net" modified="2024-05-29T13:53:11.829Z" agent="Mozilla/5.0 (Windows NT 10.0; Win64; x64) AppleWebKit/537.36 (KHTML, like Gecko) Chrome/125.0.0.0 Safari/537.36" etag="0Y9s-j1F8nd0w0ZxiCdS" version="24.4.9" type="github">
  <diagram name="Page-1" id="k_aOBrfTD1fjt1JlveB1">
    <mxGraphModel dx="2864" dy="884" grid="1" gridSize="10" guides="1" tooltips="1" connect="1" arrows="1" fold="1" page="1" pageScale="1" pageWidth="850" pageHeight="1100" math="0" shadow="0">
      <root>
        <mxCell id="0" />
        <mxCell id="1" parent="0" />
        <mxCell id="Obm0xwAy0lFi44I8HFgi-16" value="" style="edgeStyle=orthogonalEdgeStyle;rounded=0;orthogonalLoop=1;jettySize=auto;html=1;" edge="1" parent="1" source="Wuknd4n4-xYCcDOv8qRE-1" target="Obm0xwAy0lFi44I8HFgi-15">
          <mxGeometry relative="1" as="geometry" />
        </mxCell>
        <mxCell id="Wuknd4n4-xYCcDOv8qRE-1" value="Photos" style="rounded=1;whiteSpace=wrap;html=1;fillColor=#f8cecc;strokeColor=#b85450;" parent="1" vertex="1">
          <mxGeometry x="-565" y="50" width="120" height="60" as="geometry" />
        </mxCell>
        <mxCell id="Wuknd4n4-xYCcDOv8qRE-7" value="" style="edgeStyle=orthogonalEdgeStyle;rounded=0;orthogonalLoop=1;jettySize=auto;html=1;" parent="1" source="Wuknd4n4-xYCcDOv8qRE-2" target="Wuknd4n4-xYCcDOv8qRE-4" edge="1">
          <mxGeometry relative="1" as="geometry" />
        </mxCell>
        <mxCell id="Wuknd4n4-xYCcDOv8qRE-2" value="Batch upload" style="rounded=1;whiteSpace=wrap;html=1;" parent="1" vertex="1">
          <mxGeometry x="-565" y="200" width="120" height="60" as="geometry" />
        </mxCell>
        <mxCell id="Wuknd4n4-xYCcDOv8qRE-16" value="" style="edgeStyle=orthogonalEdgeStyle;rounded=0;orthogonalLoop=1;jettySize=auto;html=1;" parent="1" source="Wuknd4n4-xYCcDOv8qRE-4" target="Wuknd4n4-xYCcDOv8qRE-5" edge="1">
          <mxGeometry relative="1" as="geometry" />
        </mxCell>
        <mxCell id="Obm0xwAy0lFi44I8HFgi-7" value="" style="edgeStyle=orthogonalEdgeStyle;rounded=0;orthogonalLoop=1;jettySize=auto;html=1;" edge="1" parent="1" source="Wuknd4n4-xYCcDOv8qRE-4" target="Obm0xwAy0lFi44I8HFgi-1">
          <mxGeometry relative="1" as="geometry" />
        </mxCell>
        <mxCell id="Wuknd4n4-xYCcDOv8qRE-4" value="AWS MongoDB" style="rounded=1;whiteSpace=wrap;html=1;" parent="1" vertex="1">
          <mxGeometry x="-565" y="300" width="120" height="60" as="geometry" />
        </mxCell>
        <mxCell id="Wuknd4n4-xYCcDOv8qRE-15" style="edgeStyle=orthogonalEdgeStyle;rounded=0;orthogonalLoop=1;jettySize=auto;html=1;entryX=0;entryY=0.5;entryDx=0;entryDy=0;exitX=0.5;exitY=1;exitDx=0;exitDy=0;" parent="1" source="Wuknd4n4-xYCcDOv8qRE-5" target="Wuknd4n4-xYCcDOv8qRE-8" edge="1">
          <mxGeometry relative="1" as="geometry" />
        </mxCell>
        <mxCell id="Obm0xwAy0lFi44I8HFgi-22" style="edgeStyle=orthogonalEdgeStyle;rounded=0;orthogonalLoop=1;jettySize=auto;html=1;entryX=0;entryY=0.5;entryDx=0;entryDy=0;" edge="1" parent="1" target="Obm0xwAy0lFi44I8HFgi-21">
          <mxGeometry relative="1" as="geometry">
            <mxPoint x="-710" y="360" as="sourcePoint" />
            <Array as="points">
              <mxPoint x="-710" y="690" />
            </Array>
          </mxGeometry>
        </mxCell>
        <mxCell id="Obm0xwAy0lFi44I8HFgi-27" style="edgeStyle=orthogonalEdgeStyle;rounded=0;orthogonalLoop=1;jettySize=auto;html=1;entryX=0;entryY=0.5;entryDx=0;entryDy=0;exitX=0.125;exitY=1.001;exitDx=0;exitDy=0;exitPerimeter=0;" edge="1" parent="1" source="Wuknd4n4-xYCcDOv8qRE-5" target="Wuknd4n4-xYCcDOv8qRE-19">
          <mxGeometry relative="1" as="geometry" />
        </mxCell>
        <mxCell id="Obm0xwAy0lFi44I8HFgi-32" style="edgeStyle=orthogonalEdgeStyle;rounded=0;orthogonalLoop=1;jettySize=auto;html=1;entryX=0;entryY=0.5;entryDx=0;entryDy=0;exitX=0.75;exitY=1;exitDx=0;exitDy=0;" edge="1" parent="1" source="Wuknd4n4-xYCcDOv8qRE-5" target="Obm0xwAy0lFi44I8HFgi-1">
          <mxGeometry relative="1" as="geometry" />
        </mxCell>
        <mxCell id="Wuknd4n4-xYCcDOv8qRE-5" value="Cronjob(s)" style="rounded=1;whiteSpace=wrap;html=1;" parent="1" vertex="1">
          <mxGeometry x="-745" y="300" width="120" height="60" as="geometry" />
        </mxCell>
        <mxCell id="Obm0xwAy0lFi44I8HFgi-19" style="edgeStyle=orthogonalEdgeStyle;rounded=0;orthogonalLoop=1;jettySize=auto;html=1;entryX=0;entryY=0.5;entryDx=0;entryDy=0;exitX=0.5;exitY=1;exitDx=0;exitDy=0;" edge="1" parent="1" source="Wuknd4n4-xYCcDOv8qRE-8" target="Obm0xwAy0lFi44I8HFgi-18">
          <mxGeometry relative="1" as="geometry" />
        </mxCell>
        <mxCell id="Wuknd4n4-xYCcDOv8qRE-8" value="Results" style="rounded=1;whiteSpace=wrap;html=1;" parent="1" vertex="1">
          <mxGeometry x="-565" y="510" width="120" height="60" as="geometry" />
        </mxCell>
        <mxCell id="Wuknd4n4-xYCcDOv8qRE-12" value="" style="edgeStyle=orthogonalEdgeStyle;rounded=0;orthogonalLoop=1;jettySize=auto;html=1;exitX=0.5;exitY=0;exitDx=0;exitDy=0;entryX=1;entryY=0.5;entryDx=0;entryDy=0;" parent="1" source="Wuknd4n4-xYCcDOv8qRE-11" target="Wuknd4n4-xYCcDOv8qRE-1" edge="1">
          <mxGeometry relative="1" as="geometry" />
        </mxCell>
        <mxCell id="Obm0xwAy0lFi44I8HFgi-3" style="edgeStyle=orthogonalEdgeStyle;rounded=0;orthogonalLoop=1;jettySize=auto;html=1;entryX=1;entryY=0.5;entryDx=0;entryDy=0;exitX=0.25;exitY=1;exitDx=0;exitDy=0;" edge="1" parent="1" source="Wuknd4n4-xYCcDOv8qRE-11" target="Wuknd4n4-xYCcDOv8qRE-17">
          <mxGeometry relative="1" as="geometry" />
        </mxCell>
        <mxCell id="Obm0xwAy0lFi44I8HFgi-4" style="edgeStyle=orthogonalEdgeStyle;rounded=0;orthogonalLoop=1;jettySize=auto;html=1;entryX=1;entryY=0.5;entryDx=0;entryDy=0;" edge="1" parent="1" source="Wuknd4n4-xYCcDOv8qRE-11" target="Obm0xwAy0lFi44I8HFgi-1">
          <mxGeometry relative="1" as="geometry" />
        </mxCell>
        <mxCell id="Wuknd4n4-xYCcDOv8qRE-11" value="App" style="rounded=1;whiteSpace=wrap;html=1;fillColor=#d5e8d4;strokeColor=#82b366;" parent="1" vertex="1">
          <mxGeometry x="-225" y="300" width="120" height="60" as="geometry" />
        </mxCell>
        <mxCell id="Obm0xwAy0lFi44I8HFgi-2" value="" style="edgeStyle=orthogonalEdgeStyle;rounded=0;orthogonalLoop=1;jettySize=auto;html=1;" edge="1" parent="1" source="Wuknd4n4-xYCcDOv8qRE-17" target="Wuknd4n4-xYCcDOv8qRE-8">
          <mxGeometry relative="1" as="geometry" />
        </mxCell>
        <mxCell id="Wuknd4n4-xYCcDOv8qRE-17" value="Settings" style="rounded=1;whiteSpace=wrap;html=1;" parent="1" vertex="1">
          <mxGeometry x="-345" y="510" width="120" height="60" as="geometry" />
        </mxCell>
        <mxCell id="Wuknd4n4-xYCcDOv8qRE-19" value="Masterdata" style="rounded=1;whiteSpace=wrap;html=1;" parent="1" vertex="1">
          <mxGeometry x="-565" y="750" width="120" height="60" as="geometry" />
        </mxCell>
        <mxCell id="Obm0xwAy0lFi44I8HFgi-6" value="" style="edgeStyle=orthogonalEdgeStyle;rounded=0;orthogonalLoop=1;jettySize=auto;html=1;" edge="1" parent="1" source="Obm0xwAy0lFi44I8HFgi-1" target="Wuknd4n4-xYCcDOv8qRE-4">
          <mxGeometry relative="1" as="geometry" />
        </mxCell>
        <mxCell id="Obm0xwAy0lFi44I8HFgi-1" value="Scenario/&amp;nbsp;&lt;div&gt;Description&lt;/div&gt;" style="rounded=1;whiteSpace=wrap;html=1;" vertex="1" parent="1">
          <mxGeometry x="-565" y="400" width="120" height="60" as="geometry" />
        </mxCell>
        <mxCell id="Obm0xwAy0lFi44I8HFgi-8" value="1" style="ellipse;whiteSpace=wrap;html=1;aspect=fixed;fillColor=#008a00;strokeColor=#005700;fontColor=#ffffff;" vertex="1" parent="1">
          <mxGeometry x="-765" y="60" width="20" height="20" as="geometry" />
        </mxCell>
        <mxCell id="Obm0xwAy0lFi44I8HFgi-9" value="Input" style="text;html=1;align=left;verticalAlign=middle;whiteSpace=wrap;rounded=0;" vertex="1" parent="1">
          <mxGeometry x="-737" y="56" width="60" height="30" as="geometry" />
        </mxCell>
        <mxCell id="Obm0xwAy0lFi44I8HFgi-10" value="1" style="ellipse;whiteSpace=wrap;html=1;aspect=fixed;fillColor=#008a00;strokeColor=#005700;fontColor=#ffffff;" vertex="1" parent="1">
          <mxGeometry x="-470" y="85" width="20" height="20" as="geometry" />
        </mxCell>
        <mxCell id="Obm0xwAy0lFi44I8HFgi-11" value="1" style="ellipse;whiteSpace=wrap;html=1;aspect=fixed;fillColor=#008a00;strokeColor=#005700;fontColor=#ffffff;" vertex="1" parent="1">
          <mxGeometry x="-470" y="430" width="20" height="20" as="geometry" />
        </mxCell>
        <mxCell id="Obm0xwAy0lFi44I8HFgi-12" value="2" style="ellipse;whiteSpace=wrap;html=1;aspect=fixed;fillColor=#1ba1e2;strokeColor=#006EAF;fontColor=#ffffff;" vertex="1" parent="1">
          <mxGeometry x="-765" y="90" width="20" height="20" as="geometry" />
        </mxCell>
        <mxCell id="Obm0xwAy0lFi44I8HFgi-13" value="Results" style="text;html=1;align=left;verticalAlign=middle;whiteSpace=wrap;rounded=0;fontStyle=1" vertex="1" parent="1">
          <mxGeometry x="-737" y="86" width="60" height="30" as="geometry" />
        </mxCell>
        <mxCell id="Obm0xwAy0lFi44I8HFgi-14" value="&lt;ul&gt;&lt;li&gt;Description&lt;/li&gt;&lt;li&gt;Risk Scenario&lt;/li&gt;&lt;li&gt;Audit Answer&lt;/li&gt;&lt;li&gt;Finding&lt;/li&gt;&lt;li&gt;HazChem Register&lt;/li&gt;&lt;li&gt;Asset Register&lt;/li&gt;&lt;li&gt;Summary&lt;/li&gt;&lt;/ul&gt;" style="text;html=1;align=left;verticalAlign=middle;whiteSpace=wrap;rounded=0;" vertex="1" parent="1">
          <mxGeometry x="-765" y="150" width="207" height="30" as="geometry" />
        </mxCell>
        <mxCell id="Obm0xwAy0lFi44I8HFgi-17" value="" style="edgeStyle=orthogonalEdgeStyle;rounded=0;orthogonalLoop=1;jettySize=auto;html=1;" edge="1" parent="1" source="Obm0xwAy0lFi44I8HFgi-15" target="Wuknd4n4-xYCcDOv8qRE-2">
          <mxGeometry relative="1" as="geometry" />
        </mxCell>
        <mxCell id="Obm0xwAy0lFi44I8HFgi-15" value="Compressor" style="rounded=1;whiteSpace=wrap;html=1;fillColor=#cce5ff;strokeColor=#36393d;" vertex="1" parent="1">
          <mxGeometry x="-565" y="140" width="120" height="25" as="geometry" />
        </mxCell>
        <mxCell id="Obm0xwAy0lFi44I8HFgi-20" style="edgeStyle=orthogonalEdgeStyle;rounded=0;orthogonalLoop=1;jettySize=auto;html=1;entryX=0.5;entryY=1;entryDx=0;entryDy=0;exitX=1;exitY=0.5;exitDx=0;exitDy=0;" edge="1" parent="1" source="Obm0xwAy0lFi44I8HFgi-18" target="Wuknd4n4-xYCcDOv8qRE-11">
          <mxGeometry relative="1" as="geometry" />
        </mxCell>
        <mxCell id="Obm0xwAy0lFi44I8HFgi-18" value="Push Notification" style="rounded=1;whiteSpace=wrap;html=1;fillColor=#cce5ff;strokeColor=#36393d;" vertex="1" parent="1">
          <mxGeometry x="-340" y="610" width="120" height="25" as="geometry" />
        </mxCell>
        <mxCell id="Obm0xwAy0lFi44I8HFgi-23" style="edgeStyle=orthogonalEdgeStyle;rounded=0;orthogonalLoop=1;jettySize=auto;html=1;entryX=0.659;entryY=0.989;entryDx=0;entryDy=0;exitX=1;exitY=0.5;exitDx=0;exitDy=0;entryPerimeter=0;" edge="1" parent="1" source="Obm0xwAy0lFi44I8HFgi-24" target="Wuknd4n4-xYCcDOv8qRE-11">
          <mxGeometry relative="1" as="geometry" />
        </mxCell>
        <mxCell id="Obm0xwAy0lFi44I8HFgi-21" value="Report" style="rounded=1;whiteSpace=wrap;html=1;" vertex="1" parent="1">
          <mxGeometry x="-565" y="660" width="120" height="60" as="geometry" />
        </mxCell>
        <mxCell id="Obm0xwAy0lFi44I8HFgi-25" value="" style="edgeStyle=orthogonalEdgeStyle;rounded=0;orthogonalLoop=1;jettySize=auto;html=1;entryX=0;entryY=0.5;entryDx=0;entryDy=0;" edge="1" parent="1" source="Obm0xwAy0lFi44I8HFgi-21" target="Obm0xwAy0lFi44I8HFgi-24">
          <mxGeometry relative="1" as="geometry">
            <mxPoint x="-445" y="690" as="sourcePoint" />
            <mxPoint x="-135" y="360" as="targetPoint" />
          </mxGeometry>
        </mxCell>
        <mxCell id="Obm0xwAy0lFi44I8HFgi-24" value="Mail/ Request" style="rounded=1;whiteSpace=wrap;html=1;fillColor=#cce5ff;strokeColor=#36393d;" vertex="1" parent="1">
          <mxGeometry x="-340" y="677.5" width="120" height="25" as="geometry" />
        </mxCell>
        <mxCell id="Obm0xwAy0lFi44I8HFgi-28" style="edgeStyle=orthogonalEdgeStyle;rounded=0;orthogonalLoop=1;jettySize=auto;html=1;entryX=0.808;entryY=0.996;entryDx=0;entryDy=0;entryPerimeter=0;exitX=1;exitY=0.5;exitDx=0;exitDy=0;" edge="1" parent="1" source="Obm0xwAy0lFi44I8HFgi-30" target="Wuknd4n4-xYCcDOv8qRE-11">
          <mxGeometry relative="1" as="geometry" />
        </mxCell>
        <mxCell id="Obm0xwAy0lFi44I8HFgi-29" value="2" style="ellipse;whiteSpace=wrap;html=1;aspect=fixed;fillColor=#1ba1e2;strokeColor=#006EAF;fontColor=#ffffff;" vertex="1" parent="1">
          <mxGeometry x="-470" y="544" width="20" height="20" as="geometry" />
        </mxCell>
        <mxCell id="Obm0xwAy0lFi44I8HFgi-31" value="" style="edgeStyle=orthogonalEdgeStyle;rounded=0;orthogonalLoop=1;jettySize=auto;html=1;entryX=0;entryY=0.5;entryDx=0;entryDy=0;" edge="1" parent="1" source="Wuknd4n4-xYCcDOv8qRE-19" target="Obm0xwAy0lFi44I8HFgi-30">
          <mxGeometry relative="1" as="geometry">
            <mxPoint x="-445" y="780" as="sourcePoint" />
            <mxPoint x="-128" y="360" as="targetPoint" />
          </mxGeometry>
        </mxCell>
        <mxCell id="Obm0xwAy0lFi44I8HFgi-30" value="Update User Profile" style="rounded=1;whiteSpace=wrap;html=1;fillColor=#cce5ff;strokeColor=#36393d;" vertex="1" parent="1">
          <mxGeometry x="-340" y="767.5" width="120" height="25" as="geometry" />
        </mxCell>
      </root>
    </mxGraphModel>
  </diagram>
</mxfile>
